<svg width="21" height="20" viewBox="0 0 21 20" fill="none" xmlns="http://www.w3.org/2000/svg">
<path d="M17.5242 14.301L17.5242 14.3353C17.521 14.341 17.5164 14.3463 17.5145 14.3525C17.3956 14.7385 17.2426 15.1109 17.0725 15.4768C16.6739 16.3342 16.1428 17.1059 15.5452 17.8339C15.3016 18.1308 15.0283 18.3981 14.7047 18.6096C14.4336 18.7867 14.1404 18.908 13.8169 18.9434C13.5135 18.9765 13.2133 18.9489 12.9177 18.8721C12.66 18.8052 12.4178 18.6976 12.1761 18.5897C11.7462 18.3976 11.301 18.2753 10.8269 18.2652C10.4414 18.257 10.0626 18.2957 9.69773 18.4214C9.44102 18.5099 9.18963 18.6144 8.93806 18.7173C8.6215 18.8467 8.30023 18.9511 7.95529 18.9748C7.59166 18.9997 7.25306 18.9243 6.93453 18.7505C6.63409 18.5867 6.37695 18.3673 6.14725 18.1169C5.60339 17.5239 5.1241 16.8804 4.71502 16.1886C4.03809 15.0437 3.60389 13.8077 3.37616 12.4982C3.30028 12.0619 3.25458 11.6223 3.24198 11.1797C3.22466 10.5726 3.27122 9.97105 3.4108 9.37839C3.61521 8.51039 3.99016 7.73003 4.59936 7.07108C5.00877 6.62821 5.48978 6.28489 6.0447 6.04669C6.45249 5.87169 6.87734 5.76622 7.31986 5.72875C7.64516 5.70123 7.96626 5.71915 8.28522 5.78877C8.62322 5.86251 8.94466 5.98547 9.26628 6.10946C9.53834 6.21432 9.81082 6.31919 10.0873 6.41162C10.3123 6.4869 10.5465 6.505 10.7784 6.44034C10.9523 6.3919 11.1243 6.33522 11.294 6.27374C11.6486 6.14521 11.9987 6.00382 12.3553 5.8812C12.7096 5.75945 13.0762 5.68716 13.4518 5.67284C13.8282 5.65852 14.2017 5.68914 14.5704 5.76759C15.4734 5.95975 16.2344 6.39413 16.8328 7.10255C16.9162 7.20133 16.9928 7.30594 17.0738 7.40943C17.0542 7.42306 17.0416 7.43224 17.0286 7.44073C16.6879 7.66255 16.3822 7.92467 16.1157 8.23198C15.5405 8.89496 15.2246 9.66417 15.1775 10.5409C15.1606 10.8551 15.1786 11.1682 15.2348 11.479C15.3166 11.9313 15.4742 12.3545 15.7156 12.7457C16.0552 13.2961 16.5108 13.7294 17.0616 14.063C17.2096 14.1526 17.3696 14.2223 17.5242 14.3011L17.5242 14.301Z" fill="#09313A"/>
<path d="M13.8647 1.42822C13.891 1.58917 13.8995 1.75071 13.8924 1.91397C13.8761 2.28884 13.7991 2.65086 13.6698 3.00198C13.4446 3.61342 13.101 4.14856 12.6181 4.5874C12.1653 4.99889 11.6434 5.28828 11.0432 5.42521C10.8322 5.47331 10.6186 5.49363 10.402 5.46577C10.3565 5.45994 10.3406 5.44227 10.3341 5.3994C10.2825 5.06028 10.3204 4.72639 10.4095 4.39988C10.7064 3.31152 11.3426 2.48065 12.3198 1.91431C12.662 1.71598 13.0245 1.56687 13.4128 1.48601C13.5185 1.46398 13.6265 1.453 13.7334 1.43663C13.7459 1.43474 13.7582 1.43105 13.7705 1.42822C13.8019 1.42822 13.8334 1.42822 13.8647 1.42822Z" fill="#09313A"/>
</svg>
