<svg width="68" height="48" viewBox="0 0 68 48" fill="none" xmlns="http://www.w3.org/2000/svg">
<g clip-path="url(#clip0_8010_20879)">
<path d="M22.6544 26.2934C22.6544 26.9333 22.7236 27.4522 22.8447 27.8326C22.983 28.2131 23.156 28.6282 23.3981 29.0778C23.4846 29.2162 23.5192 29.3546 23.5192 29.4756C23.5192 29.6486 23.4154 29.8215 23.1906 29.9945L22.101 30.7208C21.9453 30.8246 21.7897 30.8765 21.6513 30.8765C21.4784 30.8765 21.3054 30.79 21.1325 30.6344C20.8904 30.3749 20.6828 30.0982 20.5099 29.8215C20.3369 29.5275 20.164 29.1989 19.9738 28.8011C18.6248 30.3922 16.9299 31.1878 14.8891 31.1878C13.4364 31.1878 12.2776 30.7727 11.4302 29.9426C10.5828 29.1124 10.1504 28.0056 10.1504 26.622C10.1504 25.152 10.6692 23.9586 11.7242 23.0593C12.7792 22.16 14.18 21.7103 15.9614 21.7103C16.5494 21.7103 17.1547 21.7622 17.7946 21.8487C18.4345 21.9352 19.0917 22.0735 19.7835 22.2292V20.9667C19.7835 19.6523 19.5068 18.7356 18.9707 18.1995C18.4172 17.6634 17.4833 17.404 16.1516 17.404C15.5463 17.404 14.9237 17.4731 14.2838 17.6288C13.6439 17.7844 13.0213 17.9747 12.416 18.2168C12.1393 18.3379 11.9317 18.407 11.8107 18.4416C11.6896 18.4762 11.6031 18.4935 11.534 18.4935C11.2918 18.4935 11.1708 18.3206 11.1708 17.9574V17.1099C11.1708 16.8332 11.2054 16.6257 11.2918 16.5046C11.3783 16.3836 11.534 16.2625 11.7761 16.1414C12.3814 15.8301 13.1078 15.5707 13.9552 15.3632C14.8027 15.1384 15.702 15.0346 16.6532 15.0346C18.7112 15.0346 20.2159 15.5015 21.1844 16.4355C22.1356 17.3694 22.6198 18.7875 22.6198 20.6899V26.2934H22.6544ZM15.6328 28.9222C16.2035 28.9222 16.7915 28.8184 17.4141 28.6109C18.0368 28.4034 18.5902 28.0229 19.0571 27.504C19.3339 27.1754 19.5414 26.8122 19.6452 26.3972C19.7489 25.9821 19.8181 25.4806 19.8181 24.8925V24.1662C19.3166 24.0451 18.7804 23.9413 18.227 23.8722C17.6736 23.803 17.1374 23.7684 16.6013 23.7684C15.4426 23.7684 14.5951 23.9932 14.0244 24.4602C13.4537 24.9271 13.177 25.5843 13.177 26.4491C13.177 27.2619 13.3845 27.8672 13.8169 28.2823C14.2319 28.7147 14.8372 28.9222 15.6328 28.9222ZM29.5204 30.79C29.2091 30.79 29.0016 30.7381 28.8632 30.6171C28.7248 30.5133 28.6038 30.2712 28.5 29.9426L24.4358 16.5738C24.332 16.2279 24.2801 16.0031 24.2801 15.882C24.2801 15.6053 24.4185 15.4497 24.6952 15.4497H26.3901C26.7187 15.4497 26.9435 15.5015 27.0646 15.6226C27.2029 15.7264 27.3067 15.9685 27.4105 16.2971L30.316 27.7462L33.0139 16.2971C33.1004 15.9512 33.2042 15.7264 33.3425 15.6226C33.4809 15.5188 33.723 15.4497 34.0343 15.4497H35.4179C35.7465 15.4497 35.9713 15.5015 36.1097 15.6226C36.248 15.7264 36.3691 15.9685 36.4383 16.2971L39.1708 27.8845L42.1628 16.2971C42.2666 15.9512 42.3876 15.7264 42.5087 15.6226C42.647 15.5188 42.8719 15.4497 43.1832 15.4497H44.7916C45.0683 15.4497 45.2239 15.588 45.2239 15.882C45.2239 15.9685 45.2066 16.055 45.1894 16.1587C45.1721 16.2625 45.1375 16.4009 45.0683 16.5911L40.9003 29.9599C40.7965 30.3058 40.6754 30.5306 40.5371 30.6344C40.3987 30.7381 40.1739 30.8073 39.8799 30.8073H38.3926C38.064 30.8073 37.8391 30.7554 37.7008 30.6344C37.5624 30.5133 37.4413 30.2885 37.3722 29.9426L34.6915 18.7875L32.0281 29.9253C31.9417 30.2712 31.8379 30.496 31.6995 30.6171C31.5612 30.7381 31.319 30.79 31.0077 30.79H29.5204ZM51.744 31.257C50.8447 31.257 49.9454 31.1532 49.0806 30.9457C48.2159 30.7381 47.5414 30.5133 47.0918 30.2539C46.815 30.0982 46.6248 29.9253 46.5556 29.7696C46.4865 29.614 46.4519 29.441 46.4519 29.2854V28.4034C46.4519 28.0402 46.5902 27.8672 46.8496 27.8672C46.9534 27.8672 47.0572 27.8845 47.1609 27.9191C47.2647 27.9537 47.4204 28.0229 47.5933 28.0921C48.1813 28.3515 48.8212 28.559 49.4957 28.6974C50.1875 28.8357 50.862 28.9049 51.5538 28.9049C52.6433 28.9049 53.4908 28.7147 54.0788 28.3342C54.6668 27.9537 54.9781 27.4003 54.9781 26.6912C54.9781 26.2069 54.8225 25.8092 54.5112 25.4806C54.1999 25.152 53.6118 24.858 52.7644 24.5812L50.2567 23.803C48.9942 23.4052 48.0603 22.8172 47.4895 22.0389C46.9188 21.278 46.6248 20.4305 46.6248 19.5312C46.6248 18.8048 46.7805 18.1649 47.0918 17.6115C47.4031 17.0581 47.8181 16.5738 48.337 16.1933C48.8558 15.7956 49.4438 15.5015 50.1356 15.294C50.8274 15.0865 51.5538 15 52.3147 15C52.6952 15 53.093 15.0173 53.4735 15.0692C53.8713 15.1211 54.2345 15.1902 54.5976 15.2594C54.9435 15.3459 55.2721 15.4324 55.5834 15.5361C55.8947 15.6399 56.1369 15.7437 56.3098 15.8474C56.5519 15.9858 56.7249 16.1242 56.8287 16.2798C56.9324 16.4182 56.9843 16.6084 56.9843 16.8505V17.6634C56.9843 18.0266 56.8459 18.2168 56.5865 18.2168C56.4482 18.2168 56.2233 18.1476 55.9293 18.0093C54.9435 17.5596 53.8367 17.3348 52.6088 17.3348C51.623 17.3348 50.8447 17.4904 50.3086 17.819C49.7724 18.1476 49.4957 18.6492 49.4957 19.3583C49.4957 19.8425 49.6687 20.2576 50.0146 20.5862C50.3605 20.9148 51.0004 21.2434 51.917 21.5374L54.3728 22.3156C55.618 22.7134 56.5173 23.2668 57.0535 23.9759C57.5896 24.685 57.849 25.4979 57.849 26.3972C57.849 27.1408 57.6934 27.8153 57.3994 28.4034C57.0881 28.9914 56.673 29.5102 56.1369 29.9253C55.6007 30.3577 54.9608 30.669 54.2172 30.8938C53.4389 31.1359 52.6261 31.257 51.744 31.257Z" fill="#252F3E"/>
<path fill-rule="evenodd" clip-rule="evenodd" d="M55.0124 39.6626C49.3225 43.8652 41.0556 46.0962 33.9475 46.0962C23.9858 46.0962 15.0099 42.4124 8.23037 36.2901C7.69423 35.8059 8.17848 35.1487 8.81839 35.5292C16.1513 39.7836 25.1964 42.3605 34.5528 42.3605C40.8654 42.3605 47.8005 41.0462 54.1823 38.3482C55.1335 37.9158 55.9463 38.9708 55.0124 39.6626Z" fill="#FF9900"/>
<path fill-rule="evenodd" clip-rule="evenodd" d="M57.3819 36.9645C56.6555 36.0306 52.5739 36.5148 50.7234 36.7396C50.17 36.8088 50.0835 36.3246 50.5851 35.9614C53.8365 33.6785 59.1805 34.3357 59.8031 35.0967C60.4257 35.8749 59.6302 41.219 56.5863 43.7786C56.1194 44.1763 55.6697 43.9688 55.8772 43.45C56.569 41.7378 58.1082 37.8811 57.3819 36.9645Z" fill="#FF9900"/>
<path d="M3.17744 12.472V3.892H4.35344L4.48544 4.504C4.76544 4.248 5.07344 4.052 5.40944 3.916C5.75344 3.78 6.10944 3.712 6.47744 3.712C7.23744 3.712 7.84144 3.996 8.28944 4.564C8.74544 5.132 8.97344 5.896 8.97344 6.856C8.97344 7.496 8.86944 8.064 8.66144 8.56C8.45344 9.048 8.15344 9.432 7.76144 9.712C7.36944 9.992 6.90944 10.132 6.38144 10.132C6.04544 10.132 5.72144 10.076 5.40944 9.964C5.09744 9.844 4.82544 9.68 4.59344 9.472V12.472H3.17744ZM6.03344 4.828C5.51344 4.828 5.03344 4.98 4.59344 5.284V8.548C5.04144 8.86 5.51744 9.016 6.02144 9.016C6.53344 9.016 6.91344 8.844 7.16144 8.5C7.40944 8.148 7.53344 7.616 7.53344 6.904C7.53344 6.2 7.40944 5.68 7.16144 5.344C6.92144 5 6.54544 4.828 6.03344 4.828ZM12.9045 10.18C11.9765 10.18 11.2525 9.896 10.7325 9.328C10.2125 8.752 9.95247 7.956 9.95247 6.94C9.95247 5.924 10.2125 5.132 10.7325 4.564C11.2525 3.996 11.9765 3.712 12.9045 3.712C13.8325 3.712 14.5565 3.996 15.0765 4.564C15.5965 5.132 15.8565 5.924 15.8565 6.94C15.8565 7.956 15.5965 8.752 15.0765 9.328C14.5565 9.896 13.8325 10.18 12.9045 10.18ZM12.9045 9.064C13.9125 9.064 14.4165 8.356 14.4165 6.94C14.4165 5.532 13.9125 4.828 12.9045 4.828C11.8965 4.828 11.3925 5.532 11.3925 6.94C11.3925 8.356 11.8965 9.064 12.9045 9.064ZM22.0391 10L20.8391 5.416L19.6391 10H18.2471L16.2671 3.892H17.7911L18.9791 8.548L20.2031 3.892H21.5471L22.7711 8.632L24.0311 3.892H25.4471L23.4311 10H22.0391ZM27.1689 7.288C27.1929 7.896 27.3609 8.344 27.6729 8.632C27.9929 8.912 28.4809 9.052 29.1369 9.052C29.7289 9.052 30.3689 8.94 31.0569 8.716V9.712C30.7849 9.856 30.4609 9.968 30.0849 10.048C29.7169 10.136 29.3329 10.18 28.9329 10.18C27.9249 10.18 27.1609 9.908 26.6409 9.364C26.1209 8.82 25.8609 8.028 25.8609 6.988C25.8609 5.956 26.1129 5.152 26.6169 4.576C27.1289 4 27.8409 3.712 28.7529 3.712C29.5369 3.712 30.1369 3.928 30.5529 4.36C30.9769 4.784 31.1889 5.388 31.1889 6.172C31.1889 6.588 31.1529 6.96 31.0809 7.288H27.1689ZM28.6929 4.744C28.2609 4.744 27.9089 4.888 27.6369 5.176C27.3649 5.464 27.2089 5.852 27.1689 6.34H29.9409V6.244C29.9409 5.756 29.8329 5.384 29.6169 5.128C29.4089 4.872 29.1009 4.744 28.6929 4.744ZM32.4513 10V3.892H33.6273L33.8193 4.804C34.1393 4.452 34.4393 4.204 34.7193 4.06C34.9993 3.916 35.3033 3.844 35.6313 3.844C35.7833 3.844 35.9473 3.856 36.1233 3.88V5.176C35.8993 5.136 35.6713 5.116 35.4393 5.116C34.8473 5.116 34.3233 5.268 33.8673 5.572V10H32.4513ZM37.9563 7.288C37.9803 7.896 38.1483 8.344 38.4603 8.632C38.7803 8.912 39.2683 9.052 39.9243 9.052C40.5163 9.052 41.1563 8.94 41.8443 8.716V9.712C41.5723 9.856 41.2483 9.968 40.8723 10.048C40.5043 10.136 40.1203 10.18 39.7203 10.18C38.7123 10.18 37.9483 9.908 37.4283 9.364C36.9083 8.82 36.6483 8.028 36.6483 6.988C36.6483 5.956 36.9003 5.152 37.4043 4.576C37.9163 4 38.6283 3.712 39.5403 3.712C40.3243 3.712 40.9243 3.928 41.3403 4.36C41.7643 4.784 41.9763 5.388 41.9763 6.172C41.9763 6.588 41.9403 6.96 41.8683 7.288H37.9563ZM39.4803 4.744C39.0483 4.744 38.6963 4.888 38.4243 5.176C38.1523 5.464 37.9963 5.852 37.9563 6.34H40.7283V6.244C40.7283 5.756 40.6203 5.384 40.4043 5.128C40.1963 4.872 39.8883 4.744 39.4803 4.744ZM47.4867 10L47.3427 9.412C46.7987 9.892 46.1707 10.132 45.4587 10.132C44.6907 10.132 44.0747 9.848 43.6107 9.28C43.1547 8.704 42.9267 7.932 42.9267 6.964C42.9267 6.324 43.0307 5.76 43.2387 5.272C43.4467 4.784 43.7467 4.404 44.1387 4.132C44.5307 3.852 44.9947 3.712 45.5307 3.712C46.1707 3.712 46.7547 3.92 47.2827 4.336V1.12H48.6987V10H47.4867ZM45.9027 9.016C46.3747 9.016 46.8347 8.864 47.2827 8.56V5.26C46.8747 4.972 46.4227 4.828 45.9267 4.828C45.3907 4.828 44.9947 5 44.7387 5.344C44.4907 5.68 44.3667 6.2 44.3667 6.904C44.3667 8.312 44.8787 9.016 45.9027 9.016ZM53.3229 10V1.12H54.7389V4.432C55.3069 3.952 55.9349 3.712 56.6229 3.712C57.3829 3.712 57.9869 3.996 58.4349 4.564C58.8909 5.132 59.1189 5.896 59.1189 6.856C59.1189 7.496 59.0149 8.064 58.8069 8.56C58.5989 9.048 58.2989 9.432 57.9069 9.712C57.5149 9.992 57.0549 10.132 56.5269 10.132C56.1669 10.132 55.8229 10.068 55.4949 9.94C55.1669 9.804 54.8829 9.616 54.6429 9.376L54.4989 10H53.3229ZM56.1789 4.828C55.6589 4.828 55.1789 4.98 54.7389 5.284V8.548C55.1869 8.86 55.6629 9.016 56.1669 9.016C56.6789 9.016 57.0589 8.844 57.3069 8.5C57.5549 8.148 57.6789 7.616 57.6789 6.904C57.6789 6.2 57.5549 5.68 57.3069 5.344C57.0669 5 56.6909 4.828 56.1789 4.828ZM61.9007 10.072L59.5127 3.892H61.0247L62.5727 8.728L64.1447 3.892H65.5967L62.8607 10.972C62.6367 11.556 62.3727 11.976 62.0687 12.232C61.7647 12.488 61.3687 12.616 60.8807 12.616C60.5207 12.616 60.1847 12.556 59.8727 12.436V11.452C60.0647 11.492 60.2687 11.512 60.4847 11.512C60.8287 11.512 61.0847 11.448 61.2527 11.32C61.4207 11.2 61.5847 10.924 61.7447 10.492L61.9007 10.072Z" fill="#252F3E"/>
</g>
<defs>
<clipPath id="clip0_8010_20879">
<rect width="68" height="48" fill="white"/>
</clipPath>
</defs>
</svg>
