<svg width="428" height="132" viewBox="0 0 428 132" fill="none" xmlns="http://www.w3.org/2000/svg">
<mask id="path-1-inside-1_6907_41229" fill="white">
<path fill-rule="evenodd" clip-rule="evenodd" d="M322.752 57.5L260.5 0L299.942 57.5H14.1488C6.33462 57.5 0 63.8346 0 71.6488V117.632C0 125.446 6.33462 131.781 14.1488 131.781H413.851C421.665 131.781 428 125.446 428 117.632V71.6488C428 63.8346 421.665 57.5 413.851 57.5H322.752Z"/>
</mask>
<path fill-rule="evenodd" clip-rule="evenodd" d="M322.752 57.5L260.5 0L299.942 57.5H14.1488C6.33462 57.5 0 63.8346 0 71.6488V117.632C0 125.446 6.33462 131.781 14.1488 131.781H413.851C421.665 131.781 428 125.446 428 117.632V71.6488C428 63.8346 421.665 57.5 413.851 57.5H322.752Z" fill="#F7FFFE"/>
<path d="M260.5 0L261.179 -0.734588L259.675 0.565661L260.5 0ZM322.752 57.5L322.074 58.2346L322.361 58.5H322.752V57.5ZM299.942 57.5V58.5H301.841L300.767 56.9343L299.942 57.5ZM259.821 0.734588L322.074 58.2346L323.431 56.7654L261.179 -0.734588L259.821 0.734588ZM300.767 56.9343L261.325 -0.565661L259.675 0.565661L299.117 58.0657L300.767 56.9343ZM14.1488 58.5H299.942V56.5H14.1488V58.5ZM1 71.6488C1 64.3869 6.8869 58.5 14.1488 58.5V56.5C5.78233 56.5 -1 63.2823 -1 71.6488H1ZM1 117.632V71.6488H-1V117.632H1ZM14.1488 130.781C6.88691 130.781 1 124.894 1 117.632H-1C-1 125.999 5.78234 132.781 14.1488 132.781V130.781ZM413.851 130.781H14.1488V132.781H413.851V130.781ZM427 117.632C427 124.894 421.113 130.781 413.851 130.781V132.781C422.218 132.781 429 125.999 429 117.632H427ZM427 71.6488V117.632H429V71.6488H427ZM413.851 58.5C421.113 58.5 427 64.3869 427 71.6488H429C429 63.2823 422.218 56.5 413.851 56.5V58.5ZM322.752 58.5H413.851V56.5H322.752V58.5Z" fill="#08B783" mask="url(#path-1-inside-1_6907_41229)"/>
</svg>
