<svg width="640" height="270" viewBox="0 0 640 270" fill="none" xmlns="http://www.w3.org/2000/svg">
<rect x="53.2019" y="31" width="12" height="35" rx="3" transform="rotate(43.7475 53.2019 31)" fill="#FFE092"/>
<rect x="39.8979" y="222.407" width="12" height="31.6682" rx="3" transform="rotate(43.7475 39.8979 222.407)" fill="#FFE092"/>
<rect x="568.618" y="19.4307" width="12" height="39.9407" rx="3" transform="rotate(43.7475 568.618 19.4307)" fill="#FFE092"/>
<rect x="46" y="95.1455" width="12" height="35" rx="3" transform="rotate(-42.7479 46 95.1455)" fill="#FFAC92"/>
<rect x="536.105" y="144.061" width="12" height="35" rx="3" transform="rotate(-49.298 536.105 144.061)" fill="#FFAC92"/>
<rect y="83.9736" width="12" height="20.6356" rx="3" transform="rotate(-4.65398 0 83.9736)" fill="#AEFF92"/>
<rect x="558" y="105.974" width="12" height="20.6356" rx="3" transform="rotate(-4.65398 558 105.974)" fill="#AEFF92"/>
<rect x="626" y="248.974" width="12" height="20.6356" rx="3" transform="rotate(-4.65398 626 248.974)" fill="#AEFF92"/>
<rect x="471.239" y="11.6685" width="12" height="20.6356" rx="3" transform="rotate(-73.8732 471.239 11.6685)" fill="#AEFF92"/>
</svg>
