<svg width="482" height="125" viewBox="0 0 482 125" fill="none" xmlns="http://www.w3.org/2000/svg">
<mask id="path-1-inside-1_6907_41098" fill="white">
<path fill-rule="evenodd" clip-rule="evenodd" d="M20 0C8.95431 0 0 8.95428 0 20V101.292C0 112.337 8.9543 121.292 20 121.292H409.272L481.094 124.075L430.794 104.172C430.93 103.232 431 102.27 431 101.292V20C431 8.9543 422.046 0 411 0H20Z"/>
</mask>
<path fill-rule="evenodd" clip-rule="evenodd" d="M20 0C8.95431 0 0 8.95428 0 20V101.292C0 112.337 8.9543 121.292 20 121.292H409.272L481.094 124.075L430.794 104.172C430.93 103.232 431 102.27 431 101.292V20C431 8.9543 422.046 0 411 0H20Z" fill="#F7FFFE"/>
<path d="M409.272 121.292L409.33 119.793L409.301 119.792H409.272V121.292ZM481.094 124.075L481.035 125.574L481.645 122.68L481.094 124.075ZM430.794 104.172L429.309 103.958L429.14 105.131L430.242 105.567L430.794 104.172ZM1.5 20C1.5 9.78271 9.78273 1.5 20 1.5V-1.5C8.12588 -1.5 -1.5 8.12585 -1.5 20H1.5ZM1.5 101.292V20H-1.5V101.292H1.5ZM20 119.792C9.78273 119.792 1.5 111.509 1.5 101.292H-1.5C-1.5 113.166 8.12588 122.792 20 122.792V119.792ZM409.272 119.792H20V122.792H409.272V119.792ZM481.152 122.576L409.33 119.793L409.214 122.791L481.035 125.574L481.152 122.576ZM430.242 105.567L480.542 125.47L481.645 122.68L431.346 102.777L430.242 105.567ZM429.5 101.292C429.5 102.198 429.435 103.088 429.309 103.958L432.279 104.386C432.425 103.375 432.5 102.342 432.5 101.292H429.5ZM429.5 20V101.292H432.5V20H429.5ZM411 1.5C421.217 1.5 429.5 9.78273 429.5 20H432.5C432.5 8.12588 422.874 -1.5 411 -1.5V1.5ZM20 1.5H411V-1.5H20V1.5Z" fill="#08B783" mask="url(#path-1-inside-1_6907_41098)"/>
</svg>
