<svg width="371" height="212" viewBox="0 0 371 212" fill="none" xmlns="http://www.w3.org/2000/svg">
<g filter="url(#filter0_d_6907_41306)">
<path d="M11 10C10.4477 10 10 10.4477 10 11C10 11.5523 10.4477 12 11 12V10ZM355 11H356C356 10.4477 355.552 10 355 10V11ZM349.667 196C349.667 198.946 352.054 201.333 355 201.333C357.946 201.333 360.333 198.946 360.333 196C360.333 193.054 357.946 190.667 355 190.667C352.054 190.667 349.667 193.054 349.667 196ZM11 12H355V10H11V12ZM354 11V196H356V11H354Z" fill="#A8EEDC"/>
</g>
<defs>
<filter id="filter0_d_6907_41306" x="0" y="0" width="370.333" height="211.333" filterUnits="userSpaceOnUse" color-interpolation-filters="sRGB">
<feFlood flood-opacity="0" result="BackgroundImageFix"/>
<feColorMatrix in="SourceAlpha" type="matrix" values="0 0 0 0 0 0 0 0 0 0 0 0 0 0 0 0 0 0 127 0" result="hardAlpha"/>
<feOffset/>
<feGaussianBlur stdDeviation="5"/>
<feComposite in2="hardAlpha" operator="out"/>
<feColorMatrix type="matrix" values="0 0 0 0 0.603733 0 0 0 0 1 0 0 0 0 0.950467 0 0 0 1 0"/>
<feBlend mode="normal" in2="BackgroundImageFix" result="effect1_dropShadow_6907_41306"/>
<feBlend mode="normal" in="SourceGraphic" in2="effect1_dropShadow_6907_41306" result="shape"/>
</filter>
</defs>
</svg>
