<svg width="431" height="147" viewBox="0 0 431 147" fill="none" xmlns="http://www.w3.org/2000/svg">
<mask id="path-1-inside-1_6907_35550" fill="white">
<path fill-rule="evenodd" clip-rule="evenodd" d="M20 0C8.95431 0 0 8.95428 0 20V101.292C0 112.337 8.9543 121.292 20 121.292H279.106L307.869 146.449L299.263 121.292H411C422.046 121.292 431 112.337 431 101.292V20C431 8.9543 422.046 0 411 0H20Z"/>
</mask>
<path fill-rule="evenodd" clip-rule="evenodd" d="M20 0C8.95431 0 0 8.95428 0 20V101.292C0 112.337 8.9543 121.292 20 121.292H279.106L307.869 146.449L299.263 121.292H411C422.046 121.292 431 112.337 431 101.292V20C431 8.9543 422.046 0 411 0H20Z" fill="#F7FFFE"/>
<path d="M279.106 121.292L280.094 120.163L279.67 119.792H279.106V121.292ZM307.869 146.449L306.881 147.578L311.104 151.271L309.288 145.964L307.869 146.449ZM299.263 121.292V119.792H297.165L297.844 121.777L299.263 121.292ZM1.5 20C1.5 9.78271 9.78273 1.5 20 1.5V-1.5C8.12588 -1.5 -1.5 8.12585 -1.5 20H1.5ZM1.5 101.292V20H-1.5V101.292H1.5ZM20 119.792C9.78273 119.792 1.5 111.509 1.5 101.292H-1.5C-1.5 113.166 8.12588 122.792 20 122.792V119.792ZM279.106 119.792H20V122.792H279.106V119.792ZM308.857 145.32L280.094 120.163L278.119 122.421L306.881 147.578L308.857 145.32ZM297.844 121.777L306.45 146.935L309.288 145.964L300.682 120.806L297.844 121.777ZM411 119.792H299.263V122.792H411V119.792ZM429.5 101.292C429.5 111.509 421.217 119.792 411 119.792V122.792C422.874 122.792 432.5 113.166 432.5 101.292H429.5ZM429.5 20V101.292H432.5V20H429.5ZM411 1.5C421.217 1.5 429.5 9.78273 429.5 20H432.5C432.5 8.12588 422.874 -1.5 411 -1.5V1.5ZM20 1.5H411V-1.5H20V1.5Z" fill="#08B783" mask="url(#path-1-inside-1_6907_35550)"/>
</svg>
