<svg width="16" height="17" viewBox="0 0 16 17" fill="none" xmlns="http://www.w3.org/2000/svg">
<path d="M4 3.75488C3.46957 3.75488 2.96086 3.9656 2.58579 4.34067C2.21071 4.71574 2 5.22445 2 5.75488V5.95588L8 9.18688L14 5.95688V5.75488C14 5.22445 13.7893 4.71574 13.4142 4.34067C13.0391 3.9656 12.5304 3.75488 12 3.75488H4ZM14 7.09188L8.237 10.1949C8.16416 10.2341 8.08273 10.2546 8 10.2546C7.91727 10.2546 7.83584 10.2341 7.763 10.1949L2 7.09188V11.7549C2 12.2853 2.21071 12.794 2.58579 13.1691C2.96086 13.5442 3.46957 13.7549 4 13.7549H12C12.5304 13.7549 13.0391 13.5442 13.4142 13.1691C13.7893 12.794 14 12.2853 14 11.7549V7.09188Z" fill="white"/>
</svg>
