<svg width="16" height="17" viewBox="0 0 16 17" fill="none" xmlns="http://www.w3.org/2000/svg">
<path d="M8 8.08838C8.55228 8.08838 9 7.64066 9 7.08838C9 6.53609 8.55228 6.08838 8 6.08838C7.44772 6.08838 7 6.53609 7 7.08838C7 7.64066 7.44772 8.08838 8 8.08838Z" fill="white"/>
<path d="M8.00008 2.08838C6.59479 2.08831 5.24625 2.64288 4.24758 3.63157C3.2489 4.62026 2.6808 5.96315 2.66675 7.36838C2.66675 11.0217 7.36675 15.0884 7.56675 15.2617C7.6875 15.365 7.84118 15.4218 8.00008 15.4218C8.15898 15.4218 8.31266 15.365 8.43341 15.2617C8.66675 15.0884 13.3334 11.0217 13.3334 7.36838C13.3194 5.96315 12.7513 4.62026 11.7526 3.63157C10.7539 2.64288 9.40538 2.08831 8.00008 2.08838ZM8.00008 9.42171C7.53859 9.42171 7.08747 9.28486 6.70375 9.02847C6.32004 8.77209 6.02097 8.40767 5.84436 7.98131C5.66776 7.55495 5.62155 7.08579 5.71158 6.63317C5.80161 6.18055 6.02384 5.76479 6.35017 5.43846C6.67649 5.11214 7.09225 4.88991 7.54487 4.79988C7.99749 4.70985 8.46665 4.75606 8.89301 4.93266C9.31937 5.10926 9.68379 5.40833 9.94018 5.79205C10.1966 6.17576 10.3334 6.62689 10.3334 7.08838C10.3334 7.70722 10.0876 8.30071 9.65 8.73829C9.21241 9.17588 8.61892 9.42171 8.00008 9.42171Z" fill="white"/>
</svg>
