<svg width="178" height="28" viewBox="0 0 178 28" fill="none" xmlns="http://www.w3.org/2000/svg">
<path d="M14.5287 27.2705C11.7927 27.2705 9.38066 26.7425 7.29266 25.6865C5.22866 24.6305 3.63266 23.1185 2.50466 21.1505C1.37666 19.1585 0.812659 16.8305 0.812659 14.1665C0.812659 11.5025 1.37666 9.18647 2.50466 7.21847C3.63266 5.22647 5.22866 3.70247 7.29266 2.64647C9.38066 1.56647 11.7927 1.02647 14.5287 1.02647C16.3287 1.02647 17.9367 1.20647 19.3527 1.56647C20.7687 1.92647 22.0767 2.49047 23.2767 3.25847V9.30647C22.2207 8.46647 21.0207 7.85447 19.6767 7.47047C18.3567 7.08647 16.8327 6.89447 15.1047 6.89447C12.6327 6.89447 10.7247 7.54247 9.38066 8.83847C8.03666 10.1105 7.36466 11.8865 7.36466 14.1665C7.36466 16.4465 8.03666 18.2345 9.38066 19.5305C10.7487 20.8265 12.6567 21.4745 15.1047 21.4745C16.8327 21.4745 18.3807 21.2705 19.7487 20.8625C21.1167 20.4545 22.3887 19.8065 23.5647 18.9185V24.9305C21.2847 26.4905 18.2727 27.2705 14.5287 27.2705ZM25.7117 0.126468H32.0477V26.7305H25.7117V0.126468ZM41.4302 27.2705C39.2702 27.2705 37.5182 26.7545 36.1742 25.7225C34.8542 24.6665 34.1942 23.2025 34.1942 21.3305C34.1942 19.3865 34.8302 17.8985 36.1022 16.8665C37.3982 15.8105 39.2462 15.2825 41.6462 15.2825C42.5822 15.2825 43.5182 15.3905 44.4542 15.6065C45.3902 15.7985 46.1942 16.0625 46.8662 16.3985V16.0385C46.8662 14.1905 45.3542 13.2665 42.3302 13.2665C40.2182 13.2665 38.2862 13.6745 36.5342 14.4905V10.1345C37.3022 9.77447 38.3102 9.48647 39.5582 9.27047C40.8062 9.03047 42.1022 8.91047 43.4462 8.91047C46.6622 8.91047 49.0862 9.55847 50.7182 10.8545C52.3742 12.1265 53.2022 13.9145 53.2022 16.2185V26.7305H47.2622V25.2545C46.6142 25.8785 45.7982 26.3705 44.8142 26.7305C43.8302 27.0905 42.7022 27.2705 41.4302 27.2705ZM43.3022 23.3825C44.0462 23.3825 44.7422 23.2385 45.3902 22.9505C46.0382 22.6385 46.5302 22.2425 46.8662 21.7625V20.2505C45.8342 19.5545 44.6582 19.2065 43.3382 19.2065C42.4982 19.2065 41.8502 19.3865 41.3942 19.7465C40.9382 20.1065 40.7102 20.6345 40.7102 21.3305C40.7102 21.9785 40.9262 22.4825 41.3582 22.8425C41.8142 23.2025 42.4622 23.3825 43.3022 23.3825ZM62.8187 27.2705C61.4267 27.2705 59.9747 27.1265 58.4627 26.8385C56.9507 26.5745 55.7507 26.1905 54.8627 25.6865V21.0425C55.8467 21.6185 57.0227 22.0985 58.3907 22.4825C59.7827 22.8425 61.0547 23.0225 62.2067 23.0225C63.0467 23.0225 63.6587 22.9625 64.0427 22.8425C64.4267 22.7225 64.6187 22.4825 64.6187 22.1225C64.6187 21.8345 64.4867 21.6065 64.2227 21.4385C63.9827 21.2465 63.5267 21.0545 62.8547 20.8625C62.2067 20.6465 61.4507 20.4185 60.5867 20.1785C59.1227 19.7465 57.9707 19.3025 57.1307 18.8465C56.2907 18.3905 55.6667 17.8145 55.2587 17.1185C54.8507 16.4225 54.6467 15.5465 54.6467 14.4905C54.6467 12.6185 55.3787 11.2265 56.8427 10.3145C58.3307 9.37847 60.3587 8.91047 62.9267 8.91047C64.1747 8.91047 65.4827 9.04247 66.8507 9.30647C68.2427 9.57047 69.2867 9.91847 69.9827 10.3505V14.9225C69.2627 14.4425 68.3027 14.0465 67.1027 13.7345C65.9267 13.4225 64.8227 13.2665 63.7907 13.2665C62.9747 13.2665 62.3387 13.3505 61.8827 13.5185C61.4267 13.6625 61.1987 13.9265 61.1987 14.3105C61.1987 14.6705 61.4267 14.9465 61.8827 15.1385C62.3387 15.3305 63.1547 15.5705 64.3307 15.8585C65.0987 16.0505 65.4227 16.1345 65.3027 16.1105C66.8387 16.5185 68.0267 16.9745 68.8667 17.4785C69.7067 17.9825 70.2947 18.5825 70.6307 19.2785C70.9907 19.9505 71.1707 20.8145 71.1707 21.8705C71.1707 23.5265 70.4507 24.8465 69.0107 25.8305C67.5947 26.7905 65.5307 27.2705 62.8187 27.2705ZM79.8611 27.2705C78.4691 27.2705 77.0171 27.1265 75.5051 26.8385C73.9931 26.5745 72.7931 26.1905 71.9051 25.6865V21.0425C72.8891 21.6185 74.0651 22.0985 75.4331 22.4825C76.8251 22.8425 78.0971 23.0225 79.2491 23.0225C80.0891 23.0225 80.7011 22.9625 81.0851 22.8425C81.4691 22.7225 81.6611 22.4825 81.6611 22.1225C81.6611 21.8345 81.5291 21.6065 81.2651 21.4385C81.0251 21.2465 80.5691 21.0545 79.8971 20.8625C79.2491 20.6465 78.4931 20.4185 77.6291 20.1785C76.1651 19.7465 75.0131 19.3025 74.1731 18.8465C73.3331 18.3905 72.7091 17.8145 72.3011 17.1185C71.8931 16.4225 71.6891 15.5465 71.6891 14.4905C71.6891 12.6185 72.4211 11.2265 73.8851 10.3145C75.3731 9.37847 77.4011 8.91047 79.9691 8.91047C81.2171 8.91047 82.5251 9.04247 83.8931 9.30647C85.2851 9.57047 86.3291 9.91847 87.0251 10.3505V14.9225C86.3051 14.4425 85.3451 14.0465 84.1451 13.7345C82.9691 13.4225 81.8651 13.2665 80.8331 13.2665C80.0171 13.2665 79.3811 13.3505 78.9251 13.5185C78.4691 13.6625 78.2411 13.9265 78.2411 14.3105C78.2411 14.6705 78.4691 14.9465 78.9251 15.1385C79.3811 15.3305 80.1971 15.5705 81.3731 15.8585C82.1411 16.0505 82.4651 16.1345 82.3451 16.1105C83.8811 16.5185 85.0691 16.9745 85.9091 17.4785C86.7491 17.9825 87.3371 18.5825 87.6731 19.2785C88.0331 19.9505 88.2131 20.8145 88.2131 21.8705C88.2131 23.5265 87.4931 24.8465 86.0531 25.8305C84.6371 26.7905 82.5731 27.2705 79.8611 27.2705ZM100.517 27.2705C97.1335 27.2705 94.4695 26.4785 92.5255 24.8945C90.6055 23.3105 89.6455 21.0665 89.6455 18.1625C89.6455 15.3065 90.4975 13.0505 92.2015 11.3945C93.9295 9.73847 96.4135 8.91047 99.6535 8.91047C101.717 8.91047 103.481 9.30647 104.945 10.0985C106.433 10.8665 107.549 11.9345 108.293 13.3025C109.061 14.6465 109.445 16.1705 109.445 17.8745V20.2145H95.6575C95.8975 21.1745 96.4975 21.8705 97.4575 22.3025C98.4175 22.7345 99.7255 22.9505 101.381 22.9505C102.509 22.9505 103.661 22.8545 104.837 22.6625C106.037 22.4705 107.069 22.2065 107.933 21.8705V26.0465C107.045 26.4065 105.929 26.6945 104.585 26.9105C103.265 27.1505 101.909 27.2705 100.517 27.2705ZM103.469 16.2545C103.373 15.3185 102.989 14.5865 102.317 14.0585C101.645 13.5305 100.721 13.2665 99.5455 13.2665C98.3935 13.2665 97.4815 13.5425 96.8095 14.0945C96.1375 14.6225 95.7535 15.3425 95.6575 16.2545H103.469ZM111.591 9.45047H117.711V11.3585C118.455 10.5425 119.355 9.93047 120.411 9.52247C121.467 9.11447 122.571 8.91047 123.723 8.91047C126.147 8.91047 127.935 9.54647 129.087 10.8185C130.263 12.0665 130.851 13.7705 130.851 15.9305V26.7305H124.515V16.7585C124.515 14.8145 123.627 13.8425 121.851 13.8425C121.035 13.8425 120.291 14.0345 119.619 14.4185C118.947 14.7785 118.383 15.3425 117.927 16.1105V26.7305H111.591V9.45047ZM142.016 27.2705C140.216 27.2705 138.62 26.8985 137.228 26.1545C135.836 25.3865 134.756 24.3185 133.988 22.9505C133.22 21.5585 132.836 19.9505 132.836 18.1265C132.836 16.3265 133.22 14.7305 133.988 13.3385C134.756 11.9225 135.824 10.8305 137.192 10.0625C138.584 9.29447 140.192 8.91047 142.016 8.91047C143.216 8.91047 144.32 9.07847 145.328 9.41447C146.336 9.75047 147.2 10.2305 147.92 10.8545V0.126468H154.256V26.7305H148.136V25.0025C146.528 26.5145 144.488 27.2705 142.016 27.2705ZM143.672 22.3745C144.632 22.3745 145.496 22.1345 146.264 21.6545C147.032 21.1505 147.584 20.4785 147.92 19.6385V16.5785C147.584 15.7385 147.032 15.0785 146.264 14.5985C145.496 14.0945 144.632 13.8425 143.672 13.8425C142.376 13.8425 141.332 14.2265 140.54 14.9945C139.748 15.7625 139.352 16.8065 139.352 18.1265C139.352 19.4465 139.748 20.4905 140.54 21.2585C141.332 22.0025 142.376 22.3745 143.672 22.3745ZM166.546 27.2705C164.41 27.2705 162.538 26.8865 160.93 26.1185C159.322 25.3265 158.074 24.2465 157.186 22.8785C156.322 21.4865 155.89 19.8905 155.89 18.0905C155.89 16.2905 156.322 14.7065 157.186 13.3385C158.074 11.9465 159.322 10.8665 160.93 10.0985C162.538 9.30647 164.41 8.91047 166.546 8.91047C168.682 8.91047 170.554 9.30647 172.162 10.0985C173.77 10.8665 175.006 11.9465 175.87 13.3385C176.758 14.7065 177.202 16.2905 177.202 18.0905C177.202 19.8905 176.758 21.4865 175.87 22.8785C175.006 24.2465 173.77 25.3265 172.162 26.1185C170.554 26.8865 168.682 27.2705 166.546 27.2705ZM166.546 22.3385C167.818 22.3385 168.826 21.9665 169.57 21.2225C170.338 20.4545 170.722 19.4105 170.722 18.0905C170.722 16.7705 170.338 15.7385 169.57 14.9945C168.826 14.2265 167.818 13.8425 166.546 13.8425C165.274 13.8425 164.254 14.2265 163.486 14.9945C162.742 15.7385 162.37 16.7705 162.37 18.0905C162.37 19.4105 162.742 20.4545 163.486 21.2225C164.254 21.9665 165.274 22.3385 166.546 22.3385Z" fill="#252B39"/>
</svg>
