<svg width="42" height="42" viewBox="0 0 42 42" fill="none" xmlns="http://www.w3.org/2000/svg">
<path d="M12.914 38.9437V36.193C14.1825 36.193 15.2132 35.0288 15.2132 33.5927C15.2132 32.1566 14.1852 30.9923 12.914 30.9923V28.2129V26.1851H1V41.0003H4.65786H9.25342H12.9113V38.9437H12.914Z" fill="#252B39" stroke="white" stroke-width="0.795059" stroke-linecap="round" stroke-linejoin="round"/>
<path d="M12.8153 11.3726V15.9208C11.2364 15.9208 9.95801 17.2001 9.95801 18.7802C9.95801 20.3602 11.2364 21.6396 12.8153 21.6396V26.1878H18.0984C18.0984 24.611 19.3768 23.3284 20.9556 23.3284C22.5345 23.3284 23.8129 24.6078 23.8129 26.1878H29.096V11.3726H12.8153Z" fill="#252B39" stroke="white" stroke-width="0.795059" stroke-linecap="round" stroke-linejoin="round"/>
<path d="M26.8321 26.1846H23.8086C23.8086 24.6078 22.5302 23.3252 20.9514 23.3252C19.3725 23.3252 18.0941 24.6046 18.0941 26.1846H12.811V40.9998H29.0917V26.1846H26.8321Z" fill="#252B39" stroke="white" stroke-width="0.795059" stroke-linecap="round" stroke-linejoin="round"/>
<path d="M29.0861 28.1367V30.8874C27.8176 30.8874 26.3809 32.0516 26.3809 33.4877C26.3809 34.9238 27.8148 36.088 29.0861 36.088V40.8953H41.0001V26.0801H29.0861V28.1367Z" fill="#252B39" stroke="white" stroke-width="0.795059" stroke-linecap="round" stroke-linejoin="round"/>
<path d="M20.9521 11.4623V2.31152" stroke="#252B39" stroke-width="0.93254" stroke-linecap="round" stroke-linejoin="round"/>
<path d="M20.9521 1V6.01517L24.8705 3.50759L20.9521 1Z" fill="#252B39" stroke="#252B39" stroke-width="0.93254" stroke-linecap="round" stroke-linejoin="round"/>
</svg>
