<svg width="244" height="55" viewBox="0 0 244 55" fill="none" xmlns="http://www.w3.org/2000/svg">
<path d="M27.7091 43.6837C24.2449 43.6837 21.191 43.0152 18.5473 41.6782C15.934 40.3411 13.9132 38.4267 12.485 35.9349C11.0568 33.4128 10.3427 30.4652 10.3427 27.0922C10.3427 23.7192 11.0568 20.7869 12.485 18.2951C13.9132 15.7729 15.934 13.8433 18.5473 12.5063C21.191 11.1389 24.2449 10.4552 27.7091 10.4552C29.9881 10.4552 32.0241 10.6831 33.8169 11.1389C35.6098 11.5947 37.2659 12.3088 38.7853 13.2812V20.9388C37.4482 19.8752 35.9288 19.1004 34.2272 18.6142C32.5558 18.128 30.6263 17.8849 28.4384 17.8849C25.3085 17.8849 22.8927 18.7053 21.191 20.3462C19.4893 21.9568 18.6384 24.2054 18.6384 27.0922C18.6384 29.979 19.4893 32.2429 21.191 33.8838C22.9231 35.5247 25.3389 36.3452 28.4384 36.3452C30.6263 36.3452 32.5862 36.0869 34.3183 35.5703C36.0504 35.0537 37.6609 34.2333 39.1499 33.1089V40.7209C36.2631 42.6961 32.4495 43.6837 27.7091 43.6837ZM41.8684 9.31563H49.8906V43H41.8684V9.31563ZM61.7702 43.6837C59.0353 43.6837 56.8171 43.0304 55.1154 41.7237C53.4441 40.3867 52.6084 38.5331 52.6084 36.1628C52.6084 33.7015 53.4137 31.8175 55.0242 30.5108C56.6651 29.1738 59.0049 28.5052 62.0437 28.5052C63.2288 28.5052 64.4139 28.642 65.599 28.9155C66.7841 29.1586 67.8021 29.4928 68.6529 29.9183V29.4624C68.6529 27.1226 66.7385 25.9527 62.9097 25.9527C60.2356 25.9527 57.7894 26.4693 55.5712 27.5025V21.9872C56.5436 21.5313 57.8198 21.1667 59.4 20.8932C60.9801 20.5893 62.621 20.4374 64.3227 20.4374C68.3946 20.4374 71.4637 21.2579 73.5301 22.8988C75.6268 24.5093 76.6752 26.7732 76.6752 29.6903V43H69.1543V41.1312C68.3339 41.9212 67.3007 42.5442 66.0548 43C64.8089 43.4558 63.3807 43.6837 61.7702 43.6837ZM64.1404 38.761C65.0824 38.761 65.9636 38.5786 66.7841 38.214C67.6046 37.819 68.2275 37.3176 68.6529 36.7098V34.7954C67.3463 33.9142 65.8573 33.4736 64.186 33.4736C63.1224 33.4736 62.302 33.7015 61.7246 34.1573C61.1472 34.6131 60.8586 35.2816 60.8586 36.1628C60.8586 36.9833 61.1321 37.6214 61.679 38.0773C62.2564 38.5331 63.0768 38.761 64.1404 38.761ZM88.851 43.6837C87.0885 43.6837 85.2501 43.5014 83.3357 43.1367C81.4213 42.8025 79.9019 42.3163 78.7776 41.6782V35.7982C80.0235 36.5275 81.5125 37.1352 83.2445 37.6214C85.007 38.0773 86.6175 38.3052 88.0761 38.3052C89.1397 38.3052 89.9146 38.2292 90.4008 38.0773C90.887 37.9253 91.1301 37.6214 91.1301 37.1656C91.1301 36.801 90.9629 36.5123 90.6287 36.2996C90.3248 36.0565 89.7474 35.8134 88.8966 35.5703C88.0761 35.2968 87.1189 35.0081 86.025 34.7043C84.1714 34.1573 82.7128 33.5951 81.6492 33.0178C80.5857 32.4404 79.7956 31.7111 79.279 30.8299C78.7624 29.9486 78.5041 28.8395 78.5041 27.5025C78.5041 25.1322 79.4309 23.3698 81.2846 22.2151C83.1686 21.03 85.7363 20.4374 88.9878 20.4374C90.5679 20.4374 92.224 20.6045 93.9561 20.9388C95.7185 21.2731 97.0404 21.7137 97.9216 22.2606V28.0494C97.01 27.4417 95.7945 26.9403 94.2751 26.5453C92.7862 26.1502 91.3884 25.9527 90.0817 25.9527C89.0485 25.9527 88.2433 26.0591 87.6659 26.2718C87.0885 26.4541 86.7999 26.7884 86.7999 27.2746C86.7999 27.7304 87.0885 28.0798 87.6659 28.3229C88.2433 28.566 89.2764 28.8699 90.7654 29.2345C91.7378 29.4776 92.148 29.584 91.9961 29.5536C93.9409 30.0702 95.4451 30.6475 96.5086 31.2857C97.5722 31.9238 98.3167 32.6835 98.7421 33.5647C99.1979 34.4156 99.4258 35.5095 99.4258 36.8466C99.4258 38.9433 98.5142 40.6146 96.6909 41.8605C94.8981 43.076 92.2848 43.6837 88.851 43.6837ZM110.429 43.6837C108.667 43.6837 106.828 43.5014 104.914 43.1367C102.999 42.8025 101.48 42.3163 100.356 41.6782V35.7982C101.601 36.5275 103.09 37.1352 104.823 37.6214C106.585 38.0773 108.196 38.3052 109.654 38.3052C110.718 38.3052 111.493 38.2292 111.979 38.0773C112.465 37.9253 112.708 37.6214 112.708 37.1656C112.708 36.801 112.541 36.5123 112.207 36.2996C111.903 36.0565 111.325 35.8134 110.475 35.5703C109.654 35.2968 108.697 35.0081 107.603 34.7043C105.749 34.1573 104.291 33.5951 103.227 33.0178C102.164 32.4404 101.374 31.7111 100.857 30.8299C100.34 29.9486 100.082 28.8395 100.082 27.5025C100.082 25.1322 101.009 23.3698 102.863 22.2151C104.747 21.03 107.314 20.4374 110.566 20.4374C112.146 20.4374 113.802 20.6045 115.534 20.9388C117.297 21.2731 118.618 21.7137 119.5 22.2606V28.0494C118.588 27.4417 117.372 26.9403 115.853 26.5453C114.364 26.1502 112.966 25.9527 111.66 25.9527C110.627 25.9527 109.821 26.0591 109.244 26.2718C108.667 26.4541 108.378 26.7884 108.378 27.2746C108.378 27.7304 108.667 28.0798 109.244 28.3229C109.821 28.566 110.854 28.8699 112.343 29.2345C113.316 29.4776 113.726 29.584 113.574 29.5536C115.519 30.0702 117.023 30.6475 118.087 31.2857C119.15 31.9238 119.895 32.6835 120.32 33.5647C120.776 34.4156 121.004 35.5095 121.004 36.8466C121.004 38.9433 120.092 40.6146 118.269 41.8605C116.476 43.076 113.863 43.6837 110.429 43.6837ZM136.583 43.6837C132.298 43.6837 128.925 42.6809 126.464 40.6754C124.033 38.6698 122.817 35.8286 122.817 32.1517C122.817 28.5356 123.896 25.6792 126.054 23.5825C128.242 21.4858 131.387 20.4374 135.489 20.4374C138.102 20.4374 140.336 20.9388 142.189 21.9416C144.073 22.914 145.486 24.2662 146.428 25.9983C147.401 27.7 147.887 29.6296 147.887 31.7871V34.7498H130.429C130.733 35.9653 131.493 36.8466 132.708 37.3935C133.924 37.9405 135.58 38.214 137.677 38.214C139.105 38.214 140.564 38.0924 142.053 37.8493C143.572 37.6062 144.879 37.272 145.973 36.8466V42.134C144.848 42.5898 143.435 42.9544 141.734 43.2279C140.062 43.5318 138.345 43.6837 136.583 43.6837ZM140.321 29.7359C140.199 28.5508 139.713 27.624 138.862 26.9555C138.011 26.287 136.841 25.9527 135.352 25.9527C133.894 25.9527 132.739 26.3022 131.888 27.0011C131.037 27.6696 130.551 28.5812 130.429 29.7359H140.321ZM150.604 21.1211H158.353V23.5369C159.295 22.5037 160.434 21.7289 161.771 21.2123C163.108 20.6957 164.506 20.4374 165.965 20.4374C169.034 20.4374 171.298 21.2427 172.756 22.8532C174.245 24.4333 174.99 26.5908 174.99 29.3257V43H166.968V30.3741C166.968 27.9127 165.843 26.682 163.595 26.682C162.561 26.682 161.619 26.9251 160.769 27.4113C159.918 27.8671 159.204 28.5812 158.626 29.5536V43H150.604V21.1211ZM189.125 43.6837C186.846 43.6837 184.826 43.2127 183.063 42.2707C181.301 41.2983 179.933 39.9461 178.961 38.214C177.988 36.4515 177.502 34.4156 177.502 32.1061C177.502 29.8271 177.988 27.8063 178.961 26.0439C179.933 24.251 181.285 22.8684 183.017 21.896C184.78 20.9236 186.816 20.4374 189.125 20.4374C190.645 20.4374 192.043 20.6501 193.319 21.0755C194.595 21.501 195.689 22.1087 196.601 22.8988V9.31563H204.623V43H196.874V40.8121C194.838 42.7265 192.255 43.6837 189.125 43.6837ZM191.222 37.4847C192.438 37.4847 193.531 37.1808 194.504 36.5731C195.476 35.9349 196.175 35.0841 196.601 34.0205V30.1462C196.175 29.0826 195.476 28.2469 194.504 27.6392C193.531 27.0011 192.438 26.682 191.222 26.682C189.581 26.682 188.259 27.1682 187.257 28.1406C186.254 29.113 185.752 30.4348 185.752 32.1061C185.752 33.7774 186.254 35.0993 187.257 36.0717C188.259 37.0137 189.581 37.4847 191.222 37.4847ZM220.184 43.6837C217.479 43.6837 215.109 43.1975 213.073 42.2251C211.037 41.2223 209.457 39.8549 208.333 38.1228C207.239 36.3604 206.692 34.3396 206.692 32.0606C206.692 29.7815 207.239 27.7759 208.333 26.0439C209.457 24.2814 211.037 22.914 213.073 21.9416C215.109 20.9388 217.479 20.4374 220.184 20.4374C222.888 20.4374 225.258 20.9388 227.294 21.9416C229.33 22.914 230.895 24.2814 231.989 26.0439C233.114 27.7759 233.676 29.7815 233.676 32.0606C233.676 34.3396 233.114 36.3604 231.989 38.1228C230.895 39.8549 229.33 41.2223 227.294 42.2251C225.258 43.1975 222.888 43.6837 220.184 43.6837ZM220.184 37.4391C221.794 37.4391 223.071 36.9681 224.013 36.0261C224.985 35.0537 225.471 33.7319 225.471 32.0606C225.471 30.3893 224.985 29.0826 224.013 28.1406C223.071 27.1682 221.794 26.682 220.184 26.682C218.573 26.682 217.282 27.1682 216.309 28.1406C215.367 29.0826 214.896 30.3893 214.896 32.0606C214.896 33.7319 215.367 35.0537 216.309 36.0261C217.282 36.9681 218.573 37.4391 220.184 37.4391Z" fill="white"/>
</svg>
