<svg width="21" height="20" viewBox="0 0 21 20" fill="none" xmlns="http://www.w3.org/2000/svg">
<path d="M11.4965 10.07C9.02562 12.5406 6.54612 15.0196 4.05884 17.5068V2.6333C6.54528 5.11948 9.02457 7.5985 11.4965 10.0702V10.07Z" fill="#09313A"/>
<path d="M4.67822 2.02956C4.8553 1.97867 5.03806 1.98898 5.20819 2.09601C5.78169 2.45707 6.35478 2.81896 6.92702 3.18191C7.80336 3.7379 8.67865 4.29515 9.55478 4.85156C10.4193 5.40061 11.2841 5.94924 12.1489 6.49786C12.7506 6.87953 13.3525 7.26098 13.9683 7.65127C13.3455 8.26487 12.7287 8.87301 12.1213 9.47169C9.64059 6.99119 7.1613 4.51216 4.67822 2.02956Z" fill="#09313A"/>
<path d="M12.1169 10.6638C12.7276 11.2658 13.3429 11.8725 13.9673 12.4878C13.7633 12.6184 13.5678 12.7445 13.3715 12.8692C12.7139 13.2871 12.0563 13.7045 11.3982 14.1217C10.4628 14.7149 9.52674 15.3073 8.59151 15.9009C7.75954 16.4291 6.92842 16.9588 6.09687 17.4875C5.81969 17.6637 5.54419 17.8424 5.26385 18.0132C5.07962 18.1255 4.88046 18.1736 4.67163 18.1084C7.1526 15.6277 9.63168 13.1489 12.1173 10.6636L12.1169 10.6638Z" fill="#09313A"/>
<path d="M14.6439 12.0569C13.9894 11.3939 13.3402 10.7361 12.6836 10.0708C13.3368 9.40857 13.9875 8.74912 14.6466 8.08105C14.8163 8.18872 14.9837 8.29407 15.1498 8.40089C15.6643 8.73146 16.1799 9.06013 16.6916 9.39448C17.1808 9.71411 17.1814 10.4278 16.692 10.7453C16.0264 11.1773 15.3572 11.6033 14.6895 12.0319C14.6779 12.0392 14.6655 12.0451 14.6436 12.0569H14.6439Z" fill="#09313A"/>
</svg>
