<svg width="24" height="204" viewBox="0 0 24 204" fill="none" xmlns="http://www.w3.org/2000/svg">
<circle cx="12" cy="192" r="12" fill="#628BBC" fill-opacity="0.15"/>
<circle cx="12" cy="192" r="10" fill="#628BBC" fill-opacity="0.38"/>
<path d="M6.66667 192C6.66668 194.946 9.05449 197.333 12 197.333C14.9455 197.333 17.3333 194.946 17.3333 192C17.3333 189.054 14.9455 186.667 12 186.667C9.05449 186.667 6.66667 189.054 6.66667 192ZM11 4.37114e-08L11 1.5L13 1.5L13 -4.37114e-08L11 4.37114e-08ZM11 4.5L11 7.5L13 7.5L13 4.5L11 4.5ZM11 10.5L11 13.5L13 13.5L13 10.5L11 10.5ZM11 16.5L11 19.5L13 19.5L13 16.5L11 16.5ZM11 22.5L11 25.5L13 25.5L13 22.5L11 22.5ZM11 28.5L11 31.5L13 31.5L13 28.5L11 28.5ZM11 34.5L11 37.5L13 37.5L13 34.5L11 34.5ZM11 40.5L11 43.5L13 43.5L13 40.5L11 40.5ZM11 46.5L11 49.5L13 49.5L13 46.5L11 46.5ZM11 52.5L11 55.5L13 55.5L13 52.5L11 52.5ZM11 58.5L11 61.5L13 61.5L13 58.5L11 58.5ZM11 64.5L11 67.5L13 67.5L13 64.5L11 64.5ZM11 70.5L11 73.5L13 73.5L13 70.5L11 70.5ZM11 76.5L11 79.5L13 79.5L13 76.5L11 76.5ZM11 82.5L11 85.5L13 85.5L13 82.5L11 82.5ZM11 88.5L11 91.5L13 91.5L13 88.5L11 88.5ZM11 94.5L11 97.5L13 97.5L13 94.5L11 94.5ZM11 100.5L11 103.5L13 103.5L13 100.5L11 100.5ZM11 106.5L11 109.5L13 109.5L13 106.5L11 106.5ZM11 112.5L11 115.5L13 115.5L13 112.5L11 112.5ZM11 118.5L11 121.5L13 121.5L13 118.5L11 118.5ZM11 124.5L11 127.5L13 127.5L13 124.5L11 124.5ZM11 130.5L11 133.5L13 133.5L13 130.5L11 130.5ZM11 136.5L11 139.5L13 139.5L13 136.5L11 136.5ZM11 142.5L11 145.5L13 145.5L13 142.5L11 142.5ZM11 148.5L11 151.5L13 151.5L13 148.5L11 148.5ZM11 154.5L11 157.5L13 157.5L13 154.5L11 154.5ZM11 160.5L11 163.5L13 163.5L13 160.5L11 160.5ZM11 166.5L11 169.5L13 169.5L13 166.5L11 166.5ZM11 172.5L11 175.5L13 175.5L13 172.5L11 172.5ZM11 178.5L11 181.5L13 181.5L13 178.5L11 178.5ZM11 184.5L11 187.5L13 187.5L13 184.5L11 184.5ZM11 190.5L11 192L13 192L13 190.5L11 190.5Z" fill="url(#paint0_linear_7488_21643)"/>
<defs>
<linearGradient id="paint0_linear_7488_21643" x1="12.5" y1="-8.59702" x2="12.5" y2="192" gradientUnits="userSpaceOnUse">
<stop stop-color="#769BC7" stop-opacity="0"/>
<stop offset="1" stop-color="#608ABC"/>
</linearGradient>
</defs>
</svg>
