<svg width="10" height="6" viewBox="0 0 10 6" fill="none" xmlns="http://www.w3.org/2000/svg">
<path d="M1 2.6C0.779086 2.6 0.6 2.77909 0.6 3C0.6 3.22091 0.779086 3.4 1 3.4L1 2.6ZM9.28284 3.28284C9.43905 3.12663 9.43905 2.87337 9.28284 2.71716L6.73726 0.171573C6.58105 0.0153632 6.32778 0.0153632 6.17157 0.171573C6.01536 0.327783 6.01536 0.581048 6.17157 0.737258L8.43431 3L6.17157 5.26274C6.01536 5.41895 6.01536 5.67222 6.17157 5.82843C6.32778 5.98464 6.58105 5.98464 6.73726 5.82843L9.28284 3.28284ZM1 3.4H9V2.6H1L1 3.4Z" fill="#1A202C"/>
</svg>
